<svg width="1120" height="1120" viewBox="0 0 1120 1120" fill="none" xmlns="http://www.w3.org/2000/svg">
<rect x="560" y="315" width="35" height="35" fill="#381F31"/>
<rect x="595" y="315" width="35" height="35" fill="#381F31"/>
<rect x="525" y="350" width="35" height="35" fill="#381F31"/>
<rect x="560" y="350" width="35" height="35" fill="#6F7382"/>
<rect x="595" y="350" width="35" height="35" fill="#6F7382"/>
<rect x="630" y="350" width="35" height="35" fill="#381F31"/>
<rect x="525" y="385" width="35" height="35" fill="#381F31"/>
<rect x="560" y="385" width="35" height="35" fill="#381F31"/>
<rect x="595" y="385" width="35" height="35" fill="#9BA3A8"/>
<rect x="630" y="385" width="35" height="35" fill="#9BA3A8"/>
<rect x="665" y="385" width="35" height="35" fill="#381F31"/>
<rect x="490" y="420" width="35" height="35" fill="#381F31"/>
<rect x="630" y="420" width="35" height="35" fill="#6F7382"/>
<rect x="665" y="420" width="35" height="35" fill="#6F7382"/>
<rect x="700" y="420" width="35" height="35" fill="#381F31"/>
<rect x="385" y="455" width="35" height="35" fill="#381F31"/>
<rect x="455" y="455" width="35" height="35" fill="#381F31"/>
<rect x="665" y="455" width="35" height="35" fill="#CEDAE0"/>
<rect x="700" y="455" width="35" height="35" fill="#CEDAE0"/>
<rect x="735" y="455" width="35" height="35" fill="#381F31"/>
<rect x="350" y="490" width="35" height="35" fill="#381F31"/>
<rect x="385" y="490" width="35" height="35" fill="#6F7382"/>
<rect x="420" y="490" width="35" height="35" fill="#381F31"/>
<rect x="665" y="490" width="35" height="35" fill="#9BA3A8"/>
<rect x="700" y="490" width="35" height="35" fill="#9BA3A8"/>
<rect x="770" y="490" width="35" height="35" fill="#381F31"/>
<rect x="805" y="490" width="35" height="35" fill="#381F31"/>
<rect x="840" y="490" width="35" height="35" fill="#381F31"/>
<rect x="350" y="525" width="35" height="35" fill="#381F31"/>
<rect x="385" y="525" width="35" height="35" fill="#6F7382"/>
<rect x="420" y="525" width="35" height="35" fill="#6F7382"/>
<rect x="455" y="525" width="35" height="35" fill="#6F7382"/>
<rect x="490" y="525" width="35" height="35" fill="#6F7382"/>
<rect x="525" y="525" width="35" height="35" fill="#9BA3A8"/>
<rect x="560" y="525" width="35" height="35" fill="#9BA3A8"/>
<rect x="595" y="525" width="35" height="35" fill="#EBEBEB"/>
<rect x="630" y="525" width="35" height="35" fill="#CEDAE0"/>
<rect x="665" y="525" width="35" height="35" fill="#CEDAE0"/>
<rect x="700" y="525" width="35" height="35" fill="#CEDAE0"/>
<rect x="735" y="525" width="35" height="35" fill="#CEDAE0"/>
<rect x="770" y="525" width="35" height="35" fill="#CEDAE0"/>
<rect x="805" y="525" width="35" height="35" fill="#CEDAE0"/>
<rect x="840" y="525" width="35" height="35" fill="#EBEBEB"/>
<rect x="875" y="525" width="35" height="35" fill="#381F31"/>
<rect x="385" y="560" width="35" height="35" fill="#381F31"/>
<rect x="420" y="560" width="35" height="35" fill="#6F7382"/>
<rect x="455" y="560" width="35" height="35" fill="#6F7382"/>
<rect x="490" y="560" width="35" height="35" fill="#6F7382"/>
<rect x="525" y="560" width="35" height="35" fill="#9BA3A8"/>
<rect x="560" y="560" width="35" height="35" fill="#9BA3A8"/>
<rect x="595" y="560" width="35" height="35" fill="#CEDAE0"/>
<rect x="630" y="560" width="35" height="35" fill="#EBEBEB"/>
<rect x="665" y="560" width="35" height="35" fill="#EBEBEB"/>
<rect x="700" y="560" width="35" height="35" fill="#EBEBEB"/>
<rect x="735" y="560" width="35" height="35" fill="#EBEBEB"/>
<rect x="770" y="560" width="35" height="35" fill="#EBEBEB"/>
<rect x="805" y="560" width="35" height="35" fill="white"/>
<rect x="840" y="560" width="35" height="35" fill="#CEDAE0"/>
<rect x="875" y="560" width="35" height="35" fill="#381F31"/>
<rect x="490" y="595" width="35" height="35" fill="#6F7382"/>
<rect x="525" y="595" width="35" height="35" fill="#9BA3A8"/>
<rect x="560" y="595" width="35" height="35" fill="#9BA3A8"/>
<rect x="595" y="595" width="35" height="35" fill="#CEDAE0"/>
<rect x="630" y="595" width="35" height="35" fill="#EBEBEB"/>
<rect x="665" y="595" width="35" height="35" fill="#EBEBEB"/>
<rect x="700" y="595" width="35" height="35" fill="#EBEBEB"/>
<rect x="735" y="595" width="35" height="35" fill="#EBEBEB"/>
<rect x="770" y="595" width="35" height="35" fill="#EBEBEB"/>
<rect x="805" y="595" width="35" height="35" fill="white"/>
<rect x="840" y="595" width="35" height="35" fill="#CEDAE0"/>
<rect x="875" y="595" width="35" height="35" fill="#381F31"/>
<rect x="525" y="630" width="35" height="35" fill="#9BA3A8"/>
<rect x="560" y="630" width="35" height="35" fill="#9BA3A8"/>
<rect x="595" y="630" width="35" height="35" fill="#CEDAE0"/>
<rect x="630" y="630" width="35" height="35" fill="#EBEBEB"/>
<rect x="665" y="630" width="35" height="35" fill="#EBEBEB"/>
<rect x="700" y="630" width="35" height="35" fill="#EBEBEB"/>
<rect x="735" y="630" width="35" height="35" fill="#EBEBEB"/>
<rect x="770" y="630" width="35" height="35" fill="#EBEBEB"/>
<rect x="805" y="630" width="35" height="35" fill="white"/>
<rect x="840" y="630" width="35" height="35" fill="#CEDAE0"/>
<rect x="875" y="630" width="35" height="35" fill="#381F31"/>
<rect x="560" y="665" width="35" height="35" fill="#9BA3A8"/>
<rect x="595" y="665" width="35" height="35" fill="#CEDAE0"/>
<rect x="630" y="665" width="35" height="35" fill="#EBEBEB"/>
<rect x="665" y="665" width="35" height="35" fill="#EBEBEB"/>
<rect x="700" y="665" width="35" height="35" fill="#EBEBEB"/>
<rect x="735" y="665" width="35" height="35" fill="#EBEBEB"/>
<rect x="770" y="665" width="35" height="35" fill="white"/>
<rect x="805" y="665" width="35" height="35" fill="#EBEBEB"/>
<rect x="840" y="665" width="35" height="35" fill="#CEDAE0"/>
<rect x="875" y="665" width="35" height="35" fill="#381F31"/>
<rect x="595" y="700" width="35" height="35" fill="#9BA3A8"/>
<rect x="630" y="700" width="35" height="35" fill="#CEDAE0"/>
<rect x="665" y="700" width="35" height="35" fill="#CEDAE0"/>
<rect x="700" y="700" width="35" height="35" fill="#CEDAE0"/>
<rect x="735" y="700" width="35" height="35" fill="#CEDAE0"/>
<rect x="770" y="700" width="35" height="35" fill="#CEDAE0"/>
<rect x="805" y="700" width="35" height="35" fill="#CEDAE0"/>
<rect x="840" y="700" width="35" height="35" fill="#381F31"/>
<rect x="805" y="735" width="35" height="35" fill="#381F31"/>
</svg>
