<svg width="1120" height="1120" viewBox="0 0 1120 1120" fill="none" xmlns="http://www.w3.org/2000/svg">
<rect x="805" y="525" width="35" height="35" fill="#381F31"/>
<rect x="420" y="560" width="35" height="35" fill="white"/>
<rect x="455" y="560" width="35" height="35" fill="white"/>
<rect x="490" y="560" width="35" height="35" fill="white"/>
<rect x="525" y="560" width="35" height="35" fill="white"/>
<rect x="560" y="560" width="35" height="35" fill="white"/>
<rect x="595" y="560" width="35" height="35" fill="white"/>
<rect x="630" y="560" width="35" height="35" fill="white"/>
<rect x="665" y="560" width="35" height="35" fill="white"/>
<rect x="700" y="560" width="35" height="35" fill="white"/>
<rect x="735" y="560" width="35" height="35" fill="white"/>
<rect x="770" y="560" width="35" height="35" fill="white"/>
<rect x="805" y="560" width="35" height="35" fill="white"/>
<rect x="840" y="560" width="35" height="35" fill="#381F31"/>
<rect x="490" y="595" width="35" height="35" fill="white"/>
<rect x="525" y="595" width="35" height="35" fill="#CA4646"/>
<rect x="560" y="595" width="35" height="35" fill="#DF5147"/>
<rect x="595" y="595" width="35" height="35" fill="#DF5147"/>
<rect x="630" y="595" width="35" height="35" fill="#D34F4F"/>
<rect x="665" y="595" width="35" height="35" fill="white"/>
<rect x="700" y="595" width="35" height="35" fill="#2ED7E5"/>
<rect x="735" y="595" width="35" height="35" fill="#23D6ED"/>
<rect x="770" y="595" width="35" height="35" fill="#14C2DC"/>
<rect x="805" y="595" width="35" height="35" fill="white"/>
<rect x="840" y="595" width="35" height="35" fill="#381F31"/>
<rect x="490" y="630" width="35" height="35" fill="white"/>
<rect x="525" y="630" width="35" height="35" fill="#CA4646"/>
<rect x="560" y="630" width="35" height="35" fill="#DF5147"/>
<rect x="595" y="630" width="35" height="35" fill="#C25F61"/>
<rect x="630" y="630" width="35" height="35" fill="#E35750"/>
<rect x="665" y="630" width="35" height="35" fill="#E57766"/>
<rect x="700" y="630" width="35" height="35" fill="#13E5FF"/>
<rect x="735" y="630" width="35" height="35" fill="#2ED7E5"/>
<rect x="770" y="630" width="35" height="35" fill="#14C2DC"/>
<rect x="805" y="630" width="35" height="35" fill="white"/>
<rect x="840" y="630" width="35" height="35" fill="#381F31"/>
<rect x="490" y="665" width="35" height="35" fill="white"/>
<rect x="525" y="665" width="35" height="35" fill="#DF5147"/>
<rect x="560" y="665" width="35" height="35" fill="#E35750"/>
<rect x="595" y="665" width="35" height="35" fill="#C25F61"/>
<rect x="630" y="665" width="35" height="35" fill="#E35750"/>
<rect x="665" y="665" width="35" height="35" fill="white"/>
<rect x="700" y="665" width="35" height="35" fill="#13E5FF"/>
<rect x="735" y="665" width="35" height="35" fill="#2ED7E5"/>
<rect x="770" y="665" width="35" height="35" fill="#14C2DC"/>
<rect x="805" y="665" width="35" height="35" fill="white"/>
<rect x="840" y="665" width="35" height="35" fill="#381F31"/>
<rect x="525" y="700" width="35" height="35" fill="white"/>
<rect x="560" y="700" width="35" height="35" fill="white"/>
<rect x="595" y="700" width="35" height="35" fill="white"/>
<rect x="630" y="700" width="35" height="35" fill="white"/>
<rect x="665" y="700" width="35" height="35" fill="white"/>
<rect x="700" y="700" width="35" height="35" fill="white"/>
<rect x="735" y="700" width="35" height="35" fill="white"/>
<rect x="770" y="700" width="35" height="35" fill="white"/>
<rect x="805" y="700" width="35" height="35" fill="#381F31"/>
<rect x="805" y="735" width="35" height="35" fill="#381F31"/>
</svg>
