<svg width="1120" height="1120" viewBox="0 0 1120 1120" fill="none" xmlns="http://www.w3.org/2000/svg">
<rect x="525" y="350" width="35" height="35" fill="#381F31"/>
<rect x="560" y="350" width="35" height="35" fill="#381F31"/>
<rect x="595" y="350" width="35" height="35" fill="#381F31"/>
<rect x="630" y="350" width="35" height="35" fill="#381F31"/>
<rect x="665" y="350" width="35" height="35" fill="#381F31"/>
<rect x="700" y="350" width="35" height="35" fill="#381F31"/>
<rect x="490" y="385" width="35" height="35" fill="#381F31"/>
<rect x="525" y="385" width="35" height="35" fill="#17111A"/>
<rect x="560" y="385" width="35" height="35" fill="#75B3BA"/>
<rect x="595" y="385" width="35" height="35" fill="#75B3BA"/>
<rect x="630" y="385" width="35" height="35" fill="#75B3BA"/>
<rect x="665" y="385" width="35" height="35" fill="#75B3BA"/>
<rect x="700" y="385" width="35" height="35" fill="#75B3BA"/>
<rect x="735" y="385" width="35" height="35" fill="#381F31"/>
<rect x="455" y="420" width="35" height="35" fill="#381F31"/>
<rect x="490" y="420" width="35" height="35" fill="#17111A"/>
<rect x="525" y="420" width="35" height="35" fill="#75B3BA"/>
<rect x="560" y="420" width="35" height="35" fill="#17111A"/>
<rect x="595" y="420" width="35" height="35" fill="#17111A"/>
<rect x="630" y="420" width="35" height="35" fill="#17111A"/>
<rect x="665" y="420" width="35" height="35" fill="#17111A"/>
<rect x="700" y="420" width="35" height="35" fill="#17111A"/>
<rect x="735" y="420" width="35" height="35" fill="#75B3BA"/>
<rect x="770" y="420" width="35" height="35" fill="#381F31"/>
<rect x="420" y="455" width="35" height="35" fill="#381F31"/>
<rect x="455" y="455" width="35" height="35" fill="#17111A"/>
<rect x="490" y="455" width="35" height="35" fill="#75B3BA"/>
<rect x="525" y="455" width="35" height="35" fill="#17111A"/>
<rect x="735" y="455" width="35" height="35" fill="#17111A"/>
<rect x="770" y="455" width="35" height="35" fill="#75B3BA"/>
<rect x="805" y="455" width="35" height="35" fill="#381F31"/>
<rect x="350" y="490" width="35" height="35" fill="#381F31"/>
<rect x="385" y="490" width="35" height="35" fill="#381F31"/>
<rect x="420" y="490" width="35" height="35" fill="#17111A"/>
<rect x="455" y="490" width="35" height="35" fill="#75B3BA"/>
<rect x="490" y="490" width="35" height="35" fill="#17111A"/>
<rect x="770" y="490" width="35" height="35" fill="#381F31"/>
<rect x="805" y="490" width="35" height="35" fill="#381F31"/>
<rect x="315" y="525" width="35" height="35" fill="#381F31"/>
<rect x="350" y="525" width="35" height="35" fill="#75B3BA"/>
<rect x="385" y="525" width="35" height="35" fill="#75B3BA"/>
<rect x="420" y="525" width="35" height="35" fill="white"/>
<rect x="455" y="525" width="35" height="35" fill="#17111A"/>
<rect x="805" y="525" width="35" height="35" fill="white"/>
<rect x="840" y="525" width="35" height="35" fill="#381F31"/>
<rect x="315" y="560" width="35" height="35" fill="#381F31"/>
<rect x="350" y="560" width="35" height="35" fill="#548085"/>
<rect x="385" y="560" width="35" height="35" fill="#33EBFF"/>
<rect x="420" y="560" width="35" height="35" fill="#75B3BA"/>
<rect x="455" y="560" width="35" height="35" fill="white"/>
<rect x="805" y="560" width="35" height="35" fill="#75B3BA"/>
<rect x="840" y="560" width="35" height="35" fill="white"/>
<rect x="875" y="560" width="35" height="35" fill="#381F31"/>
<rect x="315" y="595" width="35" height="35" fill="#381F31"/>
<rect x="350" y="595" width="35" height="35" fill="#75B3BA"/>
<rect x="385" y="595" width="35" height="35" fill="#75B3BA"/>
<rect x="420" y="595" width="35" height="35" fill="#75B3BA"/>
<rect x="455" y="595" width="35" height="35" fill="white"/>
<rect x="805" y="595" width="35" height="35" fill="#75B3BA"/>
<rect x="840" y="595" width="35" height="35" fill="white"/>
<rect x="875" y="595" width="35" height="35" fill="#381F31"/>
<rect x="315" y="630" width="35" height="35" fill="#381F31"/>
<rect x="350" y="630" width="35" height="35" fill="#548085"/>
<rect x="385" y="630" width="35" height="35" fill="#33EBFF"/>
<rect x="420" y="630" width="35" height="35" fill="#75B3BA"/>
<rect x="455" y="630" width="35" height="35" fill="white"/>
<rect x="805" y="630" width="35" height="35" fill="#75B3BA"/>
<rect x="840" y="630" width="35" height="35" fill="white"/>
<rect x="875" y="630" width="35" height="35" fill="#381F31"/>
<rect x="315" y="665" width="35" height="35" fill="#381F31"/>
<rect x="350" y="665" width="35" height="35" fill="#75B3BA"/>
<rect x="385" y="665" width="35" height="35" fill="#75B3BA"/>
<rect x="420" y="665" width="35" height="35" fill="#75B3BA"/>
<rect x="455" y="665" width="35" height="35" fill="white"/>
<rect x="805" y="665" width="35" height="35" fill="#75B3BA"/>
<rect x="840" y="665" width="35" height="35" fill="white"/>
<rect x="875" y="665" width="35" height="35" fill="#381F31"/>
<rect x="315" y="700" width="35" height="35" fill="#381F31"/>
<rect x="350" y="700" width="35" height="35" fill="#548085"/>
<rect x="385" y="700" width="35" height="35" fill="#548085"/>
<rect x="420" y="700" width="35" height="35" fill="#75B3BA"/>
<rect x="455" y="700" width="35" height="35" fill="white"/>
<rect x="805" y="700" width="35" height="35" fill="#75B3BA"/>
<rect x="840" y="700" width="35" height="35" fill="white"/>
<rect x="875" y="700" width="35" height="35" fill="#381F31"/>
<rect x="350" y="735" width="35" height="35" fill="#381F31"/>
<rect x="385" y="735" width="35" height="35" fill="#381F31"/>
<rect x="420" y="735" width="35" height="35" fill="#381F31"/>
<rect x="455" y="735" width="35" height="35" fill="#381F31"/>
<rect x="805" y="735" width="35" height="35" fill="#381F31"/>
<rect x="840" y="735" width="35" height="35" fill="#381F31"/>
</svg>
