<svg width="1120" height="1120" viewBox="0 0 1120 1120" fill="none" xmlns="http://www.w3.org/2000/svg">
<rect x="630" y="210" width="35" height="35" fill="#17111A"/>
<rect x="665" y="210" width="35" height="35" fill="#17111A"/>
<rect x="560" y="245" width="35" height="35" fill="#17111A"/>
<rect x="595" y="245" width="35" height="35" fill="#17111A"/>
<rect x="630" y="245" width="35" height="35" fill="#17111A"/>
<rect x="665" y="245" width="35" height="35" fill="#2B262E"/>
<rect x="700" y="245" width="35" height="35" fill="#17111A"/>
<rect x="490" y="280" width="35" height="35" fill="#17111A"/>
<rect x="525" y="280" width="35" height="35" fill="#17111A"/>
<rect x="560" y="280" width="35" height="35" fill="#17111A"/>
<rect x="595" y="280" width="35" height="35" fill="#17111A"/>
<rect x="630" y="280" width="35" height="35" fill="#17111A"/>
<rect x="665" y="280" width="35" height="35" fill="#2B262E"/>
<rect x="700" y="280" width="35" height="35" fill="#2B262E"/>
<rect x="735" y="280" width="35" height="35" fill="#17111A"/>
<rect x="420" y="315" width="35" height="35" fill="#17111A"/>
<rect x="455" y="315" width="35" height="35" fill="#17111A"/>
<rect x="490" y="315" width="35" height="35" fill="#17111A"/>
<rect x="525" y="315" width="35" height="35" fill="#17111A"/>
<rect x="560" y="315" width="35" height="35" fill="#17111A"/>
<rect x="595" y="315" width="35" height="35" fill="#17111A"/>
<rect x="630" y="315" width="35" height="35" fill="#17111A"/>
<rect x="665" y="315" width="35" height="35" fill="#2B262E"/>
<rect x="700" y="315" width="35" height="35" fill="#2B262E"/>
<rect x="735" y="315" width="35" height="35" fill="#2B262E"/>
<rect x="770" y="315" width="35" height="35" fill="#17111A"/>
<rect x="350" y="350" width="35" height="35" fill="#17111A"/>
<rect x="385" y="350" width="35" height="35" fill="#17111A"/>
<rect x="420" y="350" width="35" height="35" fill="#17111A"/>
<rect x="455" y="350" width="35" height="35" fill="#17111A"/>
<rect x="490" y="350" width="35" height="35" fill="#17111A"/>
<rect x="525" y="350" width="35" height="35" fill="#17111A"/>
<rect x="560" y="350" width="35" height="35" fill="#17111A"/>
<rect x="595" y="350" width="35" height="35" fill="#17111A"/>
<rect x="630" y="350" width="35" height="35" fill="#17111A"/>
<rect x="665" y="350" width="35" height="35" fill="#2B262E"/>
<rect x="700" y="350" width="35" height="35" fill="#2B262E"/>
<rect x="735" y="350" width="35" height="35" fill="#2B262E"/>
<rect x="770" y="350" width="35" height="35" fill="#2B262E"/>
<rect x="805" y="350" width="35" height="35" fill="#17111A"/>
<rect x="280" y="385" width="35" height="35" fill="#17111A"/>
<rect x="315" y="385" width="35" height="35" fill="#17111A"/>
<rect x="350" y="385" width="35" height="35" fill="#17111A"/>
<rect x="385" y="385" width="35" height="35" fill="#17111A"/>
<rect x="420" y="385" width="35" height="35" fill="#17111A"/>
<rect x="455" y="385" width="35" height="35" fill="#17111A"/>
<rect x="490" y="385" width="35" height="35" fill="#17111A"/>
<rect x="525" y="385" width="35" height="35" fill="#17111A"/>
<rect x="560" y="385" width="35" height="35" fill="#17111A"/>
<rect x="595" y="385" width="35" height="35" fill="#17111A"/>
<rect x="630" y="385" width="35" height="35" fill="#17111A"/>
<rect x="665" y="385" width="35" height="35" fill="#17111A"/>
<rect x="700" y="385" width="35" height="35" fill="#2B262E"/>
<rect x="735" y="385" width="35" height="35" fill="#2B262E"/>
<rect x="770" y="385" width="35" height="35" fill="#2B262E"/>
<rect x="805" y="385" width="35" height="35" fill="#2B262E"/>
<rect x="840" y="385" width="35" height="35" fill="#17111A"/>
<rect x="210" y="420" width="35" height="35" fill="#17111A"/>
<rect x="245" y="420" width="35" height="35" fill="#17111A"/>
<rect x="280" y="420" width="35" height="35" fill="#17111A"/>
<rect x="315" y="420" width="35" height="35" fill="#17111A"/>
<rect x="350" y="420" width="35" height="35" fill="#17111A"/>
<rect x="385" y="420" width="35" height="35" fill="#17111A"/>
<rect x="420" y="420" width="35" height="35" fill="#17111A"/>
<rect x="455" y="420" width="35" height="35" fill="#17111A"/>
<rect x="490" y="420" width="35" height="35" fill="#17111A"/>
<rect x="525" y="420" width="35" height="35" fill="#2B262E"/>
<rect x="560" y="420" width="35" height="35" fill="#2B262E"/>
<rect x="595" y="420" width="35" height="35" fill="#2B262E"/>
<rect x="630" y="420" width="35" height="35" fill="#2B262E"/>
<rect x="665" y="420" width="35" height="35" fill="#423F45"/>
<rect x="700" y="420" width="35" height="35" fill="#17111A"/>
<rect x="735" y="420" width="35" height="35" fill="#2B262E"/>
<rect x="770" y="420" width="35" height="35" fill="#2B262E"/>
<rect x="805" y="420" width="35" height="35" fill="#2B262E"/>
<rect x="840" y="420" width="35" height="35" fill="#2B262E"/>
<rect x="875" y="420" width="35" height="35" fill="#17111A"/>
<rect x="210" y="455" width="35" height="35" fill="#FFBF36"/>
<rect x="280" y="455" width="35" height="35" fill="#17111A"/>
<rect x="315" y="455" width="35" height="35" fill="#17111A"/>
<rect x="350" y="455" width="35" height="35" fill="#17111A"/>
<rect x="385" y="455" width="35" height="35" fill="#17111A"/>
<rect x="420" y="455" width="35" height="35" fill="#17111A"/>
<rect x="455" y="455" width="35" height="35" fill="#2B262E"/>
<rect x="490" y="455" width="35" height="35" fill="#2B262E"/>
<rect x="525" y="455" width="35" height="35" fill="#2B262E"/>
<rect x="560" y="455" width="35" height="35" fill="#2B262E"/>
<rect x="595" y="455" width="35" height="35" fill="#2B262E"/>
<rect x="630" y="455" width="35" height="35" fill="#423F45"/>
<rect x="665" y="455" width="35" height="35" fill="#423F45"/>
<rect x="700" y="455" width="35" height="35" fill="#423F45"/>
<rect x="735" y="455" width="35" height="35" fill="#17111A"/>
<rect x="770" y="455" width="35" height="35" fill="#2B262E"/>
<rect x="805" y="455" width="35" height="35" fill="#17111A"/>
<rect x="840" y="455" width="35" height="35" fill="#17111A"/>
<rect x="210" y="490" width="35" height="35" fill="#FFBF36"/>
<rect x="315" y="490" width="35" height="35" fill="#17111A"/>
<rect x="350" y="490" width="35" height="35" fill="#17111A"/>
<rect x="385" y="490" width="35" height="35" fill="#17111A"/>
<rect x="420" y="490" width="35" height="35" fill="#2B262E"/>
<rect x="455" y="490" width="35" height="35" fill="#2B262E"/>
<rect x="490" y="490" width="35" height="35" fill="#2B262E"/>
<rect x="525" y="490" width="35" height="35" fill="#2B262E"/>
<rect x="560" y="490" width="35" height="35" fill="#2B262E"/>
<rect x="595" y="490" width="35" height="35" fill="#2B262E"/>
<rect x="630" y="490" width="35" height="35" fill="#423F45"/>
<rect x="665" y="490" width="35" height="35" fill="#423F45"/>
<rect x="700" y="490" width="35" height="35" fill="#423F45"/>
<rect x="735" y="490" width="35" height="35" fill="#423F45"/>
<rect x="770" y="490" width="35" height="35" fill="#17111A"/>
<rect x="210" y="525" width="35" height="35" fill="#FFBF36"/>
<rect x="385" y="525" width="35" height="35" fill="#17111A"/>
<rect x="420" y="525" width="35" height="35" fill="#17111A"/>
<rect x="455" y="525" width="35" height="35" fill="#17111A"/>
<rect x="490" y="525" width="35" height="35" fill="#17111A"/>
<rect x="525" y="525" width="35" height="35" fill="#17111A"/>
<rect x="560" y="525" width="35" height="35" fill="#17111A"/>
<rect x="595" y="525" width="35" height="35" fill="#17111A"/>
<rect x="630" y="525" width="35" height="35" fill="#17111A"/>
<rect x="665" y="525" width="35" height="35" fill="#17111A"/>
<rect x="700" y="525" width="35" height="35" fill="#17111A"/>
<rect x="735" y="525" width="35" height="35" fill="#17111A"/>
<rect x="770" y="525" width="35" height="35" fill="#17111A"/>
<rect x="210" y="560" width="35" height="35" fill="#FFF275"/>
<rect x="210" y="595" width="35" height="35" fill="#FFF275"/>
<rect x="210" y="630" width="35" height="35" fill="#FFF275"/>
<rect x="210" y="665" width="35" height="35" fill="#FFF275"/>
<rect x="210" y="700" width="35" height="35" fill="#FFBF36"/>
<rect x="210" y="735" width="35" height="35" fill="#FFBF36"/>
<rect x="210" y="770" width="35" height="35" fill="#FFBF36"/>
</svg>
