<svg width="1120" height="1120" viewBox="0 0 1120 1120" fill="none" xmlns="http://www.w3.org/2000/svg">
<rect x="490" y="315" width="35" height="35" fill="#381F31"/>
<rect x="525" y="315" width="35" height="35" fill="#381F31"/>
<rect x="560" y="315" width="35" height="35" fill="#381F31"/>
<rect x="595" y="315" width="35" height="35" fill="#381F31"/>
<rect x="630" y="315" width="35" height="35" fill="#381F31"/>
<rect x="665" y="315" width="35" height="35" fill="#381F31"/>
<rect x="700" y="315" width="35" height="35" fill="#381F31"/>
<rect x="455" y="350" width="35" height="35" fill="#381F31"/>
<rect x="490" y="350" width="35" height="35" fill="#DE38FF"/>
<rect x="525" y="350" width="35" height="35" fill="#DE38FF"/>
<rect x="560" y="350" width="35" height="35" fill="#DE38FF"/>
<rect x="595" y="350" width="35" height="35" fill="#43B9F0"/>
<rect x="630" y="350" width="35" height="35" fill="#43B9F0"/>
<rect x="665" y="350" width="35" height="35" fill="#1FDEC8"/>
<rect x="700" y="350" width="35" height="35" fill="#1FDEC8"/>
<rect x="735" y="350" width="35" height="35" fill="#381F31"/>
<rect x="420" y="385" width="35" height="35" fill="#381F31"/>
<rect x="455" y="385" width="35" height="35" fill="#DE38FF"/>
<rect x="490" y="385" width="35" height="35" fill="#DE38FF"/>
<rect x="525" y="385" width="35" height="35" fill="#978DF0"/>
<rect x="560" y="385" width="35" height="35" fill="#43B9F0"/>
<rect x="595" y="385" width="35" height="35" fill="#43B9F0"/>
<rect x="630" y="385" width="35" height="35" fill="#43B9F0"/>
<rect x="665" y="385" width="35" height="35" fill="#1FDEC8"/>
<rect x="700" y="385" width="35" height="35" fill="#1FDEC8"/>
<rect x="735" y="385" width="35" height="35" fill="#1FDEC8"/>
<rect x="770" y="385" width="35" height="35" fill="#381F31"/>
<rect x="385" y="420" width="35" height="35" fill="#381F31"/>
<rect x="420" y="420" width="35" height="35" fill="#DE38FF"/>
<rect x="455" y="420" width="35" height="35" fill="#DE38FF"/>
<rect x="490" y="420" width="35" height="35" fill="#978DF0"/>
<rect x="525" y="420" width="35" height="35" fill="#978DF0"/>
<rect x="560" y="420" width="35" height="35" fill="#43B9F0"/>
<rect x="595" y="420" width="35" height="35" fill="#43B9F0"/>
<rect x="630" y="420" width="35" height="35" fill="#43B9F0"/>
<rect x="665" y="420" width="35" height="35" fill="#1FDEC8"/>
<rect x="700" y="420" width="35" height="35" fill="#1FDEC8"/>
<rect x="735" y="420" width="35" height="35" fill="#1FDEC8"/>
<rect x="770" y="420" width="35" height="35" fill="#1FDEC8"/>
<rect x="805" y="420" width="35" height="35" fill="#381F31"/>
<rect x="385" y="455" width="35" height="35" fill="#381F31"/>
<rect x="420" y="455" width="35" height="35" fill="#DE38FF"/>
<rect x="455" y="455" width="35" height="35" fill="#DE38FF"/>
<rect x="490" y="455" width="35" height="35" fill="#978DF0"/>
<rect x="525" y="455" width="35" height="35" fill="#978DF0"/>
<rect x="560" y="455" width="35" height="35" fill="#43B9F0"/>
<rect x="595" y="455" width="35" height="35" fill="#43B9F0"/>
<rect x="630" y="455" width="35" height="35" fill="#43B9F0"/>
<rect x="665" y="455" width="35" height="35" fill="#1FDEC8"/>
<rect x="700" y="455" width="35" height="35" fill="#1FDEC8"/>
<rect x="735" y="455" width="35" height="35" fill="#1FDEC8"/>
<rect x="770" y="455" width="35" height="35" fill="#1FDEC8"/>
<rect x="805" y="455" width="35" height="35" fill="#381F31"/>
<rect x="385" y="490" width="35" height="35" fill="#381F31"/>
<rect x="420" y="490" width="35" height="35" fill="#DE38FF"/>
<rect x="455" y="490" width="35" height="35" fill="#DE38FF"/>
<rect x="490" y="490" width="35" height="35" fill="#978DF0"/>
<rect x="525" y="490" width="35" height="35" fill="#978DF0"/>
<rect x="560" y="490" width="35" height="35" fill="#43B9F0"/>
<rect x="595" y="490" width="35" height="35" fill="#43B9F0"/>
<rect x="630" y="490" width="35" height="35" fill="#381F31"/>
<rect x="665" y="490" width="35" height="35" fill="#381F31"/>
<rect x="700" y="490" width="35" height="35" fill="#381F31"/>
<rect x="735" y="490" width="35" height="35" fill="#1FDEC8"/>
<rect x="770" y="490" width="35" height="35" fill="#1FDEC8"/>
<rect x="805" y="490" width="35" height="35" fill="#381F31"/>
<rect x="315" y="525" width="35" height="35" fill="#381F31"/>
<rect x="350" y="525" width="35" height="35" fill="#381F31"/>
<rect x="385" y="525" width="35" height="35" fill="#381F31"/>
<rect x="420" y="525" width="35" height="35" fill="#DE38FF"/>
<rect x="455" y="525" width="35" height="35" fill="#DE38FF"/>
<rect x="490" y="525" width="35" height="35" fill="#978DF0"/>
<rect x="525" y="525" width="35" height="35" fill="#978DF0"/>
<rect x="560" y="525" width="35" height="35" fill="#43B9F0"/>
<rect x="595" y="525" width="35" height="35" fill="#381F31"/>
<rect x="735" y="525" width="35" height="35" fill="#381F31"/>
<rect x="770" y="525" width="35" height="35" fill="#1FDEC8"/>
<rect x="805" y="525" width="35" height="35" fill="#381F31"/>
<rect x="280" y="560" width="35" height="35" fill="#381F31"/>
<rect x="315" y="560" width="35" height="35" fill="#1FDEC8"/>
<rect x="350" y="560" width="35" height="35" fill="#1FDEC8"/>
<rect x="385" y="560" width="35" height="35" fill="#1FDEC8"/>
<rect x="420" y="560" width="35" height="35" fill="#1FDEC8"/>
<rect x="455" y="560" width="35" height="35" fill="#1FDEC8"/>
<rect x="490" y="560" width="35" height="35" fill="#1FDEC8"/>
<rect x="525" y="560" width="35" height="35" fill="#1FDEC8"/>
<rect x="560" y="560" width="35" height="35" fill="#1FDEC8"/>
<rect x="595" y="560" width="35" height="35" fill="#1FDEC8"/>
<rect x="630" y="560" width="35" height="35" fill="#1FDEC8"/>
<rect x="665" y="560" width="35" height="35" fill="#1FDEC8"/>
<rect x="700" y="560" width="35" height="35" fill="#1FDEC8"/>
<rect x="735" y="560" width="35" height="35" fill="#1FDEC8"/>
<rect x="770" y="560" width="35" height="35" fill="#1FDEC8"/>
<rect x="805" y="560" width="35" height="35" fill="#381F31"/>
<rect x="245" y="595" width="35" height="35" fill="#381F31"/>
<rect x="280" y="595" width="35" height="35" fill="#1FDEC8"/>
<rect x="315" y="595" width="35" height="35" fill="#978DF0"/>
<rect x="350" y="595" width="35" height="35" fill="#978DF0"/>
<rect x="385" y="595" width="35" height="35" fill="#978DF0"/>
<rect x="280" y="630" width="35" height="35" fill="#381F31"/>
<rect x="315" y="630" width="35" height="35" fill="#381F31"/>
<rect x="350" y="630" width="35" height="35" fill="#381F31"/>
<rect x="385" y="630" width="35" height="35" fill="#381F31"/>
</svg>
