<svg width="1120" height="1120" viewBox="0 0 1120 1120" fill="none" xmlns="http://www.w3.org/2000/svg">
<rect x="420" y="280" width="35" height="35" fill="#381F31"/>
<rect x="455" y="280" width="35" height="35" fill="#381F31"/>
<rect x="490" y="280" width="35" height="35" fill="#381F31"/>
<rect x="525" y="280" width="35" height="35" fill="#381F31"/>
<rect x="560" y="280" width="35" height="35" fill="#381F31"/>
<rect x="595" y="280" width="35" height="35" fill="#381F31"/>
<rect x="630" y="280" width="35" height="35" fill="#381F31"/>
<rect x="385" y="315" width="35" height="35" fill="#381F31"/>
<rect x="420" y="315" width="35" height="35" fill="#5E4669"/>
<rect x="455" y="315" width="35" height="35" fill="#705D78"/>
<rect x="490" y="315" width="35" height="35" fill="#705D78"/>
<rect x="525" y="315" width="35" height="35" fill="#705D78"/>
<rect x="560" y="315" width="35" height="35" fill="#705D78"/>
<rect x="595" y="315" width="35" height="35" fill="#705D78"/>
<rect x="630" y="315" width="35" height="35" fill="#705D78"/>
<rect x="665" y="315" width="35" height="35" fill="#381F31"/>
<rect x="700" y="315" width="35" height="35" fill="#381F31"/>
<rect x="350" y="350" width="35" height="35" fill="#381F31"/>
<rect x="385" y="350" width="35" height="35" fill="#5E4669"/>
<rect x="420" y="350" width="35" height="35" fill="#705D78"/>
<rect x="455" y="350" width="35" height="35" fill="#705D78"/>
<rect x="490" y="350" width="35" height="35" fill="#5E4669"/>
<rect x="525" y="350" width="35" height="35" fill="#705D78"/>
<rect x="560" y="350" width="35" height="35" fill="#705D78"/>
<rect x="595" y="350" width="35" height="35" fill="#705D78"/>
<rect x="630" y="350" width="35" height="35" fill="#705D78"/>
<rect x="665" y="350" width="35" height="35" fill="#705D78"/>
<rect x="700" y="350" width="35" height="35" fill="#705D78"/>
<rect x="735" y="350" width="35" height="35" fill="#381F31"/>
<rect x="315" y="385" width="35" height="35" fill="#381F31"/>
<rect x="350" y="385" width="35" height="35" fill="#5E4669"/>
<rect x="385" y="385" width="35" height="35" fill="#5E4669"/>
<rect x="420" y="385" width="35" height="35" fill="#5E4669"/>
<rect x="455" y="385" width="35" height="35" fill="#5E4669"/>
<rect x="490" y="385" width="35" height="35" fill="#705D78"/>
<rect x="525" y="385" width="35" height="35" fill="#705D78"/>
<rect x="560" y="385" width="35" height="35" fill="#705D78"/>
<rect x="595" y="385" width="35" height="35" fill="#705D78"/>
<rect x="630" y="385" width="35" height="35" fill="#705D78"/>
<rect x="665" y="385" width="35" height="35" fill="#705D78"/>
<rect x="700" y="385" width="35" height="35" fill="#705D78"/>
<rect x="735" y="385" width="35" height="35" fill="#705D78"/>
<rect x="770" y="385" width="35" height="35" fill="#381F31"/>
<rect x="315" y="420" width="35" height="35" fill="#381F31"/>
<rect x="350" y="420" width="35" height="35" fill="#5E4669"/>
<rect x="385" y="420" width="35" height="35" fill="#5E4669"/>
<rect x="420" y="420" width="35" height="35" fill="#5E4669"/>
<rect x="455" y="420" width="35" height="35" fill="#705D78"/>
<rect x="490" y="420" width="35" height="35" fill="#5E4669"/>
<rect x="525" y="420" width="35" height="35" fill="#5E4669"/>
<rect x="560" y="420" width="35" height="35" fill="#705D78"/>
<rect x="595" y="420" width="35" height="35" fill="#705D78"/>
<rect x="630" y="420" width="35" height="35" fill="#705D78"/>
<rect x="665" y="420" width="35" height="35" fill="#705D78"/>
<rect x="700" y="420" width="35" height="35" fill="#705D78"/>
<rect x="735" y="420" width="35" height="35" fill="#705D78"/>
<rect x="770" y="420" width="35" height="35" fill="#381F31"/>
<rect x="315" y="455" width="35" height="35" fill="#381F31"/>
<rect x="350" y="455" width="35" height="35" fill="#5E4669"/>
<rect x="385" y="455" width="35" height="35" fill="#5E4669"/>
<rect x="420" y="455" width="35" height="35" fill="#705D78"/>
<rect x="455" y="455" width="35" height="35" fill="#5E4669"/>
<rect x="490" y="455" width="35" height="35" fill="#5E4669"/>
<rect x="525" y="455" width="35" height="35" fill="#5E4669"/>
<rect x="560" y="455" width="35" height="35" fill="#462A52"/>
<rect x="595" y="455" width="35" height="35" fill="#462A52"/>
<rect x="630" y="455" width="35" height="35" fill="#462A52"/>
<rect x="665" y="455" width="35" height="35" fill="#462A52"/>
<rect x="700" y="455" width="35" height="35" fill="#462A52"/>
<rect x="735" y="455" width="35" height="35" fill="#462A52"/>
<rect x="770" y="455" width="35" height="35" fill="#5E4669"/>
<rect x="805" y="455" width="35" height="35" fill="#381F31"/>
<rect x="315" y="490" width="35" height="35" fill="#381F31"/>
<rect x="350" y="490" width="35" height="35" fill="#5E4669"/>
<rect x="385" y="490" width="35" height="35" fill="#5E4669"/>
<rect x="420" y="490" width="35" height="35" fill="#5E4669"/>
<rect x="455" y="490" width="35" height="35" fill="#5E4669"/>
<rect x="490" y="490" width="35" height="35" fill="#462A52"/>
<rect x="525" y="490" width="35" height="35" fill="#462A52"/>
<rect x="560" y="490" width="35" height="35" fill="#705D78"/>
<rect x="595" y="490" width="35" height="35" fill="#462A52"/>
<rect x="630" y="490" width="35" height="35" fill="#91999E"/>
<rect x="665" y="490" width="35" height="35" fill="#B2BCC2"/>
<rect x="700" y="490" width="35" height="35" fill="#DEDEDE"/>
<rect x="735" y="490" width="35" height="35" fill="#462A52"/>
<rect x="770" y="490" width="35" height="35" fill="#462A52"/>
<rect x="805" y="490" width="35" height="35" fill="#381F31"/>
<rect x="350" y="525" width="35" height="35" fill="#381F31"/>
<rect x="385" y="525" width="35" height="35" fill="#5E4669"/>
<rect x="420" y="525" width="35" height="35" fill="#462A52"/>
<rect x="455" y="525" width="35" height="35" fill="#462A52"/>
<rect x="490" y="525" width="35" height="35" fill="#5E4669"/>
<rect x="525" y="525" width="35" height="35" fill="#462A52"/>
<rect x="560" y="525" width="35" height="35" fill="#705D78"/>
<rect x="595" y="525" width="35" height="35" fill="#462A52"/>
<rect x="630" y="525" width="35" height="35" fill="#705D78"/>
<rect x="665" y="525" width="35" height="35" fill="#462A52"/>
<rect x="700" y="525" width="35" height="35" fill="#705D78"/>
<rect x="735" y="525" width="35" height="35" fill="#462A52"/>
<rect x="770" y="525" width="35" height="35" fill="#5E4669"/>
<rect x="805" y="525" width="35" height="35" fill="#381F31"/>
<rect x="350" y="560" width="35" height="35" fill="#381F31"/>
<rect x="385" y="560" width="35" height="35" fill="#462A52"/>
<rect x="420" y="560" width="35" height="35" fill="#5E4669"/>
<rect x="455" y="560" width="35" height="35" fill="#462A52"/>
<rect x="490" y="560" width="35" height="35" fill="#5E4669"/>
<rect x="770" y="560" width="35" height="35" fill="#5E4669"/>
<rect x="805" y="560" width="35" height="35" fill="#381F31"/>
<rect x="350" y="595" width="35" height="35" fill="#381F31"/>
<rect x="385" y="595" width="35" height="35" fill="#462A52"/>
</svg>
