<svg width="1120" height="1120" viewBox="0 0 1120 1120" fill="none" xmlns="http://www.w3.org/2000/svg">
<rect x="840" y="350" width="35" height="35" fill="white" fill-opacity="0.22"/>
<rect x="875" y="350" width="35" height="35" fill="white" fill-opacity="0.22"/>
<rect x="1050" y="350" width="35" height="35" fill="white" fill-opacity="0.22"/>
<rect x="1085" y="350" width="35" height="35" fill="white" fill-opacity="0.22"/>
<rect x="840" y="385" width="35" height="35" fill="white" fill-opacity="0.22"/>
<rect x="875" y="385" width="35" height="35" fill="white" fill-opacity="0.22"/>
<rect x="910" y="385" width="35" height="35" fill="white" fill-opacity="0.22"/>
<rect x="1015" y="385" width="35" height="35" fill="white" fill-opacity="0.22"/>
<rect x="1050" y="385" width="35" height="35" fill="white" fill-opacity="0.22"/>
<rect x="875" y="420" width="35" height="35" fill="white" fill-opacity="0.22"/>
<rect x="910" y="420" width="35" height="35" fill="white" fill-opacity="0.22"/>
<rect x="945" y="420" width="35" height="35" fill="white" fill-opacity="0.22"/>
<rect x="980" y="420" width="35" height="35" fill="white" fill-opacity="0.22"/>
<rect x="1015" y="420" width="35" height="35" fill="white" fill-opacity="0.22"/>
<rect x="1050" y="420" width="35" height="35" fill="white" fill-opacity="0.22"/>
<rect x="875" y="455" width="35" height="35" fill="white" fill-opacity="0.22"/>
<rect x="910" y="455" width="35" height="35" fill="white" fill-opacity="0.22"/>
<rect x="945" y="455" width="35" height="35" fill="white" fill-opacity="0.22"/>
<rect x="980" y="455" width="35" height="35" fill="white" fill-opacity="0.22"/>
<rect x="1015" y="455" width="35" height="35" fill="white" fill-opacity="0.22"/>
<rect x="770" y="490" width="35" height="35" fill="white" fill-opacity="0.22"/>
<rect x="805" y="490" width="35" height="35" fill="white" fill-opacity="0.22"/>
<rect x="840" y="490" width="35" height="35" fill="white" fill-opacity="0.22"/>
<rect x="875" y="490" width="35" height="35" fill="white" fill-opacity="0.22"/>
<rect x="910" y="490" width="35" height="35" fill="white" fill-opacity="0.22"/>
<rect x="945" y="490" width="35" height="35" fill="white" fill-opacity="0.22"/>
<rect x="980" y="490" width="35" height="35" fill="white" fill-opacity="0.22"/>
<rect x="1015" y="490" width="35" height="35" fill="white" fill-opacity="0.22"/>
<rect x="770" y="525" width="35" height="35" fill="white" fill-opacity="0.22"/>
<rect x="805" y="525" width="35" height="35" fill="white" fill-opacity="0.22"/>
<rect x="840" y="525" width="35" height="35" fill="white" fill-opacity="0.22"/>
<rect x="875" y="525" width="35" height="35" fill="white" fill-opacity="0.22"/>
<rect x="910" y="525" width="35" height="35" fill="white" fill-opacity="0.22"/>
<rect x="945" y="525" width="35" height="35" fill="white" fill-opacity="0.22"/>
<rect x="980" y="525" width="35" height="35" fill="white" fill-opacity="0.22"/>
<rect x="1015" y="525" width="35" height="35" fill="white" fill-opacity="0.22"/>
<rect x="805" y="560" width="35" height="35" fill="white" fill-opacity="0.22"/>
<rect x="840" y="560" width="35" height="35" fill="white" fill-opacity="0.22"/>
<rect x="875" y="560" width="35" height="35" fill="white" fill-opacity="0.22"/>
<rect x="910" y="560" width="35" height="35" fill="white" fill-opacity="0.22"/>
<rect x="945" y="560" width="35" height="35" fill="white" fill-opacity="0.22"/>
<rect x="980" y="560" width="35" height="35" fill="white" fill-opacity="0.22"/>
<rect x="1015" y="560" width="35" height="35" fill="white" fill-opacity="0.22"/>
<rect x="1050" y="560" width="35" height="35" fill="white" fill-opacity="0.22"/>
<rect x="805" y="595" width="35" height="35" fill="white" fill-opacity="0.22"/>
<rect x="840" y="595" width="35" height="35" fill="white" fill-opacity="0.22"/>
<rect x="875" y="595" width="35" height="35" fill="white" fill-opacity="0.22"/>
<rect x="910" y="595" width="35" height="35" fill="white" fill-opacity="0.22"/>
<rect x="945" y="595" width="35" height="35" fill="white" fill-opacity="0.22"/>
<rect x="980" y="595" width="35" height="35" fill="white" fill-opacity="0.22"/>
<rect x="1015" y="595" width="35" height="35" fill="white" fill-opacity="0.22"/>
<rect x="1050" y="595" width="35" height="35" fill="white" fill-opacity="0.22"/>
<rect x="840" y="630" width="35" height="35" fill="white" fill-opacity="0.22"/>
<rect x="875" y="630" width="35" height="35" fill="white" fill-opacity="0.22"/>
<rect x="910" y="630" width="35" height="35" fill="white" fill-opacity="0.22"/>
<rect x="945" y="630" width="35" height="35" fill="white" fill-opacity="0.22"/>
<rect x="980" y="630" width="35" height="35" fill="white" fill-opacity="0.22"/>
<rect x="1015" y="630" width="35" height="35" fill="white" fill-opacity="0.22"/>
<rect x="1050" y="630" width="35" height="35" fill="white" fill-opacity="0.22"/>
<rect x="735" y="665" width="35" height="35" fill="white" fill-opacity="0.22"/>
<rect x="770" y="665" width="35" height="35" fill="white" fill-opacity="0.22"/>
<rect x="875" y="665" width="35" height="35" fill="white" fill-opacity="0.22"/>
<rect x="910" y="665" width="35" height="35" fill="white" fill-opacity="0.22"/>
<rect x="945" y="665" width="35" height="35" fill="white" fill-opacity="0.22"/>
<rect x="980" y="665" width="35" height="35" fill="white" fill-opacity="0.22"/>
<rect x="1015" y="665" width="35" height="35" fill="white" fill-opacity="0.22"/>
<rect x="770" y="700" width="35" height="35" fill="white" fill-opacity="0.22"/>
<rect x="840" y="700" width="35" height="35" fill="white" fill-opacity="0.22"/>
<rect x="875" y="700" width="35" height="35" fill="white" fill-opacity="0.22"/>
<rect x="910" y="700" width="35" height="35" fill="white" fill-opacity="0.22"/>
<rect x="945" y="700" width="35" height="35" fill="white" fill-opacity="0.22"/>
<rect x="980" y="700" width="35" height="35" fill="white" fill-opacity="0.22"/>
<rect x="1015" y="700" width="35" height="35" fill="white" fill-opacity="0.22"/>
<rect x="805" y="735" width="35" height="35" fill="white" fill-opacity="0.22"/>
<rect x="840" y="735" width="35" height="35" fill="white" fill-opacity="0.22"/>
<rect x="875" y="735" width="35" height="35" fill="white" fill-opacity="0.22"/>
<rect x="910" y="735" width="35" height="35" fill="white" fill-opacity="0.22"/>
<rect x="945" y="735" width="35" height="35" fill="white" fill-opacity="0.22"/>
<rect x="980" y="735" width="35" height="35" fill="white" fill-opacity="0.22"/>
<rect x="1015" y="735" width="35" height="35" fill="white" fill-opacity="0.22"/>
<rect x="805" y="770" width="35" height="35" fill="white" fill-opacity="0.22"/>
<rect x="840" y="770" width="35" height="35" fill="white" fill-opacity="0.22"/>
<rect x="875" y="770" width="35" height="35" fill="white" fill-opacity="0.22"/>
<rect x="910" y="770" width="35" height="35" fill="white" fill-opacity="0.22"/>
<rect x="945" y="770" width="35" height="35" fill="white" fill-opacity="0.22"/>
<rect x="980" y="770" width="35" height="35" fill="white" fill-opacity="0.22"/>
<rect x="805" y="805" width="35" height="35" fill="white" fill-opacity="0.22"/>
<rect x="840" y="805" width="35" height="35" fill="white" fill-opacity="0.22"/>
<rect x="875" y="805" width="35" height="35" fill="white" fill-opacity="0.22"/>
<rect x="665" y="840" width="35" height="35" fill="#30110C"/>
<rect x="700" y="840" width="35" height="35" fill="#612F16"/>
<rect x="770" y="840" width="35" height="35" fill="white" fill-opacity="0.22"/>
<rect x="805" y="840" width="35" height="35" fill="white" fill-opacity="0.22"/>
<rect x="700" y="875" width="35" height="35" fill="#30110C"/>
<rect x="735" y="875" width="35" height="35" fill="#30110C"/>
<rect x="805" y="875" width="35" height="35" fill="white" fill-opacity="0.22"/>
<rect x="840" y="875" width="35" height="35" fill="white" fill-opacity="0.22"/>
<rect x="735" y="910" width="35" height="35" fill="#30110C"/>
<rect x="770" y="910" width="35" height="35" fill="#612F16"/>
<rect x="805" y="910" width="35" height="35" fill="#612F16"/>
<rect x="735" y="945" width="35" height="35" fill="#30110C"/>
<rect x="770" y="945" width="35" height="35" fill="#612F16"/>
<rect x="805" y="945" width="35" height="35" fill="#612F16"/>
<rect x="770" y="980" width="35" height="35" fill="#30110C"/>
<rect x="805" y="980" width="35" height="35" fill="#30110C"/>
</svg>
