<svg width="1120" height="1120" viewBox="0 0 1120 1120" fill="none" xmlns="http://www.w3.org/2000/svg">
<rect x="665" y="840" width="35" height="35" fill="#FB3A3A"/>
<rect x="700" y="840" width="35" height="35" fill="white"/>
<rect x="735" y="875" width="35" height="35" fill="#FB3A3A"/>
<rect x="735" y="910" width="35" height="35" fill="white"/>
<rect x="770" y="945" width="35" height="35" fill="#FB3A3A"/>
<rect x="665" y="980" width="35" height="35" fill="white"/>
<rect x="700" y="980" width="35" height="35" fill="white"/>
<rect x="735" y="980" width="35" height="35" fill="white"/>
<rect x="770" y="980" width="35" height="35" fill="white"/>
<rect x="805" y="980" width="35" height="35" fill="white"/>
<rect x="840" y="980" width="35" height="35" fill="white"/>
<rect x="875" y="980" width="35" height="35" fill="white"/>
<rect x="665" y="1015" width="35" height="35" fill="white"/>
<rect x="770" y="1015" width="35" height="35" fill="white"/>
<rect x="805" y="1015" width="35" height="35" fill="white"/>
<rect x="875" y="1015" width="35" height="35" fill="white"/>
<rect x="665" y="1050" width="35" height="35" fill="white"/>
<rect x="700" y="1050" width="35" height="35" fill="#B7EFFF"/>
<rect x="735" y="1050" width="35" height="35" fill="#B7EFFF"/>
<rect x="770" y="1050" width="35" height="35" fill="#B7EFFF"/>
<rect x="805" y="1050" width="35" height="35" fill="white"/>
<rect x="840" y="1050" width="35" height="35" fill="#B7EFFF"/>
<rect x="875" y="1050" width="35" height="35" fill="white"/>
<rect x="700" y="1085" width="35" height="35" fill="white"/>
<rect x="735" y="1085" width="35" height="35" fill="#B7EFFF"/>
<rect x="770" y="1085" width="35" height="35" fill="white"/>
<rect x="805" y="1085" width="35" height="35" fill="#B7EFFF"/>
<rect x="840" y="1085" width="35" height="35" fill="white"/>
</svg>
