<svg width="1120" height="1120" viewBox="0 0 1120 1120" fill="none" xmlns="http://www.w3.org/2000/svg">
<rect x="455" y="595" width="35" height="35" fill="#ADDEDA"/>
<rect x="490" y="630" width="35" height="35" fill="#ADDEDA"/>
<rect x="490" y="665" width="35" height="35" fill="#ADDEDA"/>
<rect x="525" y="700" width="35" height="35" fill="#ADDEDA"/>
<rect x="560" y="700" width="35" height="35" fill="#53B5AD"/>
<rect x="595" y="700" width="35" height="35" fill="#65E0D6"/>
<rect x="630" y="700" width="35" height="35" fill="#65E0D6"/>
<rect x="665" y="700" width="35" height="35" fill="#65E0D6"/>
<rect x="700" y="700" width="35" height="35" fill="#65E0D6"/>
<rect x="735" y="700" width="35" height="35" fill="#ADDEDA"/>
<rect x="455" y="735" width="35" height="35" fill="#ADDEDA"/>
<rect x="525" y="735" width="35" height="35" fill="#53B5AD"/>
<rect x="560" y="735" width="35" height="35" fill="#65E0D6"/>
<rect x="595" y="735" width="35" height="35" fill="#65E0D6"/>
<rect x="630" y="735" width="35" height="35" fill="#ADDEDA"/>
<rect x="665" y="735" width="35" height="35" fill="#ADDEDA"/>
<rect x="700" y="735" width="35" height="35" fill="#ADDEDA"/>
<rect x="735" y="735" width="35" height="35" fill="#65E0D6"/>
<rect x="490" y="770" width="35" height="35" fill="#ADDEDA"/>
<rect x="525" y="770" width="35" height="35" fill="#53B5AD"/>
<rect x="560" y="770" width="35" height="35" fill="#65E0D6"/>
<rect x="595" y="770" width="35" height="35" fill="#65E0D6"/>
<rect x="630" y="770" width="35" height="35" fill="#65E0D6"/>
<rect x="665" y="770" width="35" height="35" fill="#65E0D6"/>
<rect x="700" y="770" width="35" height="35" fill="#65E0D6"/>
<rect x="735" y="770" width="35" height="35" fill="#65E0D6"/>
<rect x="525" y="805" width="35" height="35" fill="#53B5AD"/>
<rect x="560" y="805" width="35" height="35" fill="#65E0D6"/>
<rect x="595" y="805" width="35" height="35" fill="#ADDEDA"/>
<rect x="630" y="805" width="35" height="35" fill="#65E0D6"/>
<rect x="665" y="805" width="35" height="35" fill="#65E0D6"/>
<rect x="700" y="805" width="35" height="35" fill="#65E0D6"/>
<rect x="735" y="805" width="35" height="35" fill="#65E0D6"/>
<rect x="525" y="840" width="35" height="35" fill="#53B5AD"/>
<rect x="560" y="840" width="35" height="35" fill="#65E0D6"/>
<rect x="595" y="840" width="35" height="35" fill="#65E0D6"/>
<rect x="630" y="840" width="35" height="35" fill="#ADDEDA"/>
<rect x="665" y="840" width="35" height="35" fill="#ADDEDA"/>
<rect x="700" y="840" width="35" height="35" fill="#ADDEDA"/>
<rect x="735" y="840" width="35" height="35" fill="#ADDEDA"/>
<rect x="560" y="875" width="35" height="35" fill="#53B5AD"/>
<rect x="595" y="875" width="35" height="35" fill="#65E0D6"/>
<rect x="630" y="875" width="35" height="35" fill="#65E0D6"/>
<rect x="665" y="875" width="35" height="35" fill="#65E0D6"/>
<rect x="700" y="875" width="35" height="35" fill="#65E0D6"/>
<rect x="595" y="910" width="35" height="35" fill="#53B5AD"/>
<rect x="630" y="910" width="35" height="35" fill="#53B5AD"/>
<rect x="665" y="910" width="35" height="35" fill="#53B5AD"/>
</svg>
