<svg width="1120" height="1120" viewBox="0 0 1120 1120" fill="none" xmlns="http://www.w3.org/2000/svg">
<rect x="840" y="175" width="35" height="35" fill="white" fill-opacity="0.22"/>
<rect x="875" y="175" width="35" height="35" fill="white" fill-opacity="0.22"/>
<rect x="840" y="210" width="35" height="35" fill="white" fill-opacity="0.22"/>
<rect x="875" y="210" width="35" height="35" fill="white" fill-opacity="0.22"/>
<rect x="910" y="210" width="35" height="35" fill="white" fill-opacity="0.22"/>
<rect x="1015" y="210" width="35" height="35" fill="white" fill-opacity="0.22"/>
<rect x="1050" y="210" width="35" height="35" fill="white" fill-opacity="0.22"/>
<rect x="875" y="245" width="35" height="35" fill="white" fill-opacity="0.22"/>
<rect x="910" y="245" width="35" height="35" fill="white" fill-opacity="0.22"/>
<rect x="945" y="245" width="35" height="35" fill="white" fill-opacity="0.22"/>
<rect x="980" y="245" width="35" height="35" fill="white" fill-opacity="0.22"/>
<rect x="1015" y="245" width="35" height="35" fill="white" fill-opacity="0.22"/>
<rect x="1050" y="245" width="35" height="35" fill="white" fill-opacity="0.22"/>
<rect x="875" y="280" width="35" height="35" fill="white" fill-opacity="0.22"/>
<rect x="910" y="280" width="35" height="35" fill="white" fill-opacity="0.22"/>
<rect x="945" y="280" width="35" height="35" fill="white" fill-opacity="0.22"/>
<rect x="980" y="280" width="35" height="35" fill="white" fill-opacity="0.22"/>
<rect x="1015" y="280" width="35" height="35" fill="white" fill-opacity="0.22"/>
<rect x="805" y="315" width="35" height="35" fill="white" fill-opacity="0.22"/>
<rect x="840" y="315" width="35" height="35" fill="white" fill-opacity="0.39"/>
<rect x="875" y="315" width="35" height="35" fill="white" fill-opacity="0.22"/>
<rect x="945" y="315" width="35" height="35" fill="white" fill-opacity="0.22"/>
<rect x="980" y="315" width="35" height="35" fill="white" fill-opacity="0.22"/>
<rect x="1015" y="315" width="35" height="35" fill="white" fill-opacity="0.22"/>
<rect x="1050" y="315" width="35" height="35" fill="white" fill-opacity="0.22"/>
<rect x="1085" y="315" width="35" height="35" fill="white" fill-opacity="0.22"/>
<rect x="770" y="350" width="35" height="35" fill="white" fill-opacity="0.22"/>
<rect x="805" y="350" width="35" height="35" fill="white" fill-opacity="0.22"/>
<rect x="840" y="350" width="35" height="35" fill="white" fill-opacity="0.39"/>
<rect x="875" y="350" width="35" height="35" fill="white" fill-opacity="0.39"/>
<rect x="910" y="350" width="35" height="35" fill="white" fill-opacity="0.22"/>
<rect x="980" y="350" width="35" height="35" fill="white" fill-opacity="0.22"/>
<rect x="1015" y="350" width="35" height="35" fill="white" fill-opacity="0.39"/>
<rect x="1050" y="350" width="35" height="35" fill="white" fill-opacity="0.22"/>
<rect x="770" y="385" width="35" height="35" fill="white" fill-opacity="0.22"/>
<rect x="805" y="385" width="35" height="35" fill="white" fill-opacity="0.22"/>
<rect x="840" y="385" width="35" height="35" fill="white" fill-opacity="0.22"/>
<rect x="875" y="385" width="35" height="35" fill="white" fill-opacity="0.22"/>
<rect x="910" y="385" width="35" height="35" fill="white" fill-opacity="0.39"/>
<rect x="945" y="385" width="35" height="35" fill="white" fill-opacity="0.39"/>
<rect x="980" y="385" width="35" height="35" fill="white" fill-opacity="0.39"/>
<rect x="1015" y="385" width="35" height="35" fill="white" fill-opacity="0.39"/>
<rect x="1050" y="385" width="35" height="35" fill="white" fill-opacity="0.39"/>
<rect x="805" y="420" width="35" height="35" fill="white" fill-opacity="0.22"/>
<rect x="840" y="420" width="35" height="35" fill="white" fill-opacity="0.22"/>
<rect x="875" y="420" width="35" height="35" fill="white" fill-opacity="0.39"/>
<rect x="910" y="420" width="35" height="35" fill="white" fill-opacity="0.39"/>
<rect x="945" y="420" width="35" height="35" fill="white" fill-opacity="0.39"/>
<rect x="980" y="420" width="35" height="35" fill="white" fill-opacity="0.39"/>
<rect x="1015" y="420" width="35" height="35" fill="white" fill-opacity="0.39"/>
<rect x="1050" y="420" width="35" height="35" fill="white" fill-opacity="0.22"/>
<rect x="805" y="455" width="35" height="35" fill="white" fill-opacity="0.22"/>
<rect x="840" y="455" width="35" height="35" fill="white" fill-opacity="0.39"/>
<rect x="875" y="455" width="35" height="35" fill="white" fill-opacity="0.39"/>
<rect x="910" y="455" width="35" height="35" fill="white" fill-opacity="0.39"/>
<rect x="945" y="455" width="35" height="35" fill="white" fill-opacity="0.39"/>
<rect x="980" y="455" width="35" height="35" fill="white" fill-opacity="0.39"/>
<rect x="1015" y="455" width="35" height="35" fill="white" fill-opacity="0.39"/>
<rect x="1050" y="455" width="35" height="35" fill="white" fill-opacity="0.22"/>
<rect x="770" y="490" width="35" height="35" fill="white" fill-opacity="0.39"/>
<rect x="805" y="490" width="35" height="35" fill="white" fill-opacity="0.22"/>
<rect x="840" y="490" width="35" height="35" fill="white" fill-opacity="0.22"/>
<rect x="875" y="490" width="35" height="35" fill="white" fill-opacity="0.39"/>
<rect x="910" y="490" width="35" height="35" fill="white" fill-opacity="0.39"/>
<rect x="945" y="490" width="35" height="35" fill="white" fill-opacity="0.39"/>
<rect x="980" y="490" width="35" height="35" fill="white" fill-opacity="0.39"/>
<rect x="1015" y="490" width="35" height="35" fill="white" fill-opacity="0.39"/>
<rect x="770" y="525" width="35" height="35" fill="white" fill-opacity="0.39"/>
<rect x="805" y="525" width="35" height="35" fill="white" fill-opacity="0.22"/>
<rect x="840" y="525" width="35" height="35" fill="white" fill-opacity="0.22"/>
<rect x="875" y="525" width="35" height="35" fill="white" fill-opacity="0.22"/>
<rect x="910" y="525" width="35" height="35" fill="white" fill-opacity="0.39"/>
<rect x="945" y="525" width="35" height="35" fill="white" fill-opacity="0.39"/>
<rect x="980" y="525" width="35" height="35" fill="white" fill-opacity="0.39"/>
<rect x="1015" y="525" width="35" height="35" fill="white" fill-opacity="0.39"/>
<rect x="1050" y="525" width="35" height="35" fill="white" fill-opacity="0.22"/>
<rect x="805" y="560" width="35" height="35" fill="white" fill-opacity="0.22"/>
<rect x="840" y="560" width="35" height="35" fill="white" fill-opacity="0.22"/>
<rect x="875" y="560" width="35" height="35" fill="white" fill-opacity="0.22"/>
<rect x="910" y="560" width="35" height="35" fill="white" fill-opacity="0.39"/>
<rect x="945" y="560" width="35" height="35" fill="white" fill-opacity="0.39"/>
<rect x="980" y="560" width="35" height="35" fill="white" fill-opacity="0.39"/>
<rect x="1015" y="560" width="35" height="35" fill="white" fill-opacity="0.39"/>
<rect x="1050" y="560" width="35" height="35" fill="white" fill-opacity="0.22"/>
<rect x="840" y="595" width="35" height="35" fill="white" fill-opacity="0.22"/>
<rect x="875" y="595" width="35" height="35" fill="white" fill-opacity="0.22"/>
<rect x="910" y="595" width="35" height="35" fill="white" fill-opacity="0.39"/>
<rect x="945" y="595" width="35" height="35" fill="white" fill-opacity="0.39"/>
<rect x="980" y="595" width="35" height="35" fill="white" fill-opacity="0.39"/>
<rect x="1015" y="595" width="35" height="35" fill="white" fill-opacity="0.22"/>
<rect x="1050" y="595" width="35" height="35" fill="white" fill-opacity="0.22"/>
<rect x="875" y="630" width="35" height="35" fill="white" fill-opacity="0.22"/>
<rect x="910" y="630" width="35" height="35" fill="white" fill-opacity="0.39"/>
<rect x="945" y="630" width="35" height="35" fill="white" fill-opacity="0.22"/>
<rect x="980" y="630" width="35" height="35" fill="white" fill-opacity="0.22"/>
<rect x="1015" y="630" width="35" height="35" fill="white" fill-opacity="0.22"/>
<rect x="770" y="665" width="35" height="35" fill="white" fill-opacity="0.39"/>
<rect x="840" y="665" width="35" height="35" fill="white" fill-opacity="0.22"/>
<rect x="875" y="665" width="35" height="35" fill="white" fill-opacity="0.39"/>
<rect x="910" y="665" width="35" height="35" fill="white" fill-opacity="0.22"/>
<rect x="945" y="665" width="35" height="35" fill="white" fill-opacity="0.22"/>
<rect x="980" y="665" width="35" height="35" fill="white" fill-opacity="0.22"/>
<rect x="1015" y="665" width="35" height="35" fill="white" fill-opacity="0.22"/>
<rect opacity="0.39" x="770" y="700" width="35" height="35" fill="white"/>
<rect opacity="0.22" x="805" y="700" width="35" height="35" fill="white"/>
<rect opacity="0.22" x="840" y="700" width="35" height="35" fill="white"/>
<rect opacity="0.22" x="875" y="700" width="35" height="35" fill="white"/>
<rect opacity="0.22" x="910" y="700" width="35" height="35" fill="white"/>
<rect x="945" y="700" width="35" height="35" fill="white" fill-opacity="0.39"/>
<rect opacity="0.22" x="980" y="700" width="35" height="35" fill="white"/>
<rect opacity="0.22" x="1015" y="700" width="35" height="35" fill="white"/>
<rect x="805" y="735" width="35" height="35" fill="white" fill-opacity="0.22"/>
<rect x="840" y="735" width="35" height="35" fill="white" fill-opacity="0.22"/>
<rect x="875" y="735" width="35" height="35" fill="white" fill-opacity="0.39"/>
<rect x="910" y="735" width="35" height="35" fill="white" fill-opacity="0.39"/>
<rect x="945" y="735" width="35" height="35" fill="white" fill-opacity="0.22"/>
<rect x="980" y="735" width="35" height="35" fill="white" fill-opacity="0.22"/>
<rect x="805" y="770" width="35" height="35" fill="white" fill-opacity="0.22"/>
<rect x="840" y="770" width="35" height="35" fill="white" fill-opacity="0.39"/>
<rect x="875" y="770" width="35" height="35" fill="white" fill-opacity="0.39"/>
<rect x="910" y="770" width="35" height="35" fill="white" fill-opacity="0.22"/>
<rect x="840" y="805" width="35" height="35" fill="white" fill-opacity="0.39"/>
<rect x="875" y="805" width="35" height="35" fill="white" fill-opacity="0.22"/>
<rect x="665" y="840" width="35" height="35" fill="#C9A24D"/>
<rect x="700" y="840" width="35" height="35" fill="#E3E3E3"/>
<rect x="735" y="840" width="35" height="35" fill="#E3E3E3"/>
<rect x="770" y="840" width="35" height="35" fill="#E3E3E3"/>
<rect x="805" y="840" width="35" height="35" fill="#FFEFCC"/>
</svg>
