<svg width="1120" height="1120" viewBox="0 0 1120 1120" fill="none" xmlns="http://www.w3.org/2000/svg">
<rect x="910" y="665" width="35" height="35" fill="#39855A"/>
<rect x="945" y="665" width="35" height="35" fill="#83E04C"/>
<rect x="980" y="665" width="35" height="35" fill="#DEFF38"/>
<rect x="875" y="700" width="35" height="35" fill="#DEFF38"/>
<rect x="1015" y="700" width="35" height="35" fill="#39855A"/>
<rect x="875" y="735" width="35" height="35" fill="#83E04C"/>
<rect x="945" y="735" width="35" height="35" fill="#DEFF38"/>
<rect x="1015" y="735" width="35" height="35" fill="#83E04C"/>
<rect x="910" y="770" width="35" height="35" fill="#39855A"/>
<rect x="1015" y="770" width="35" height="35" fill="white"/>
<rect x="980" y="805" width="35" height="35" fill="#83E04C"/>
<rect x="1015" y="805" width="35" height="35" fill="#39855A"/>
<rect x="665" y="840" width="35" height="35" fill="#39855A"/>
<rect x="700" y="840" width="35" height="35" fill="white"/>
<rect x="735" y="840" width="35" height="35" fill="#83E04C"/>
<rect x="770" y="840" width="35" height="35" fill="#39855A"/>
<rect x="805" y="840" width="35" height="35" fill="white"/>
<rect x="840" y="840" width="35" height="35" fill="#83E04C"/>
<rect x="875" y="840" width="35" height="35" fill="#39855A"/>
<rect x="910" y="840" width="35" height="35" fill="white"/>
<rect x="945" y="840" width="35" height="35" fill="#39855A"/>
<rect x="980" y="840" width="35" height="35" fill="#DEFF38"/>
</svg>
