<svg width="1120" height="1120" viewBox="0 0 1120 1120" fill="none" xmlns="http://www.w3.org/2000/svg">
<rect x="455" y="840" width="35" height="35" fill="#381F31"/>
<rect x="490" y="840" width="35" height="35" fill="#381F31"/>
<rect x="420" y="875" width="35" height="35" fill="#381F31"/>
<rect x="455" y="875" width="35" height="35" fill="#B8B321"/>
<rect x="490" y="875" width="35" height="35" fill="#B8B321"/>
<rect x="420" y="910" width="35" height="35" fill="#381F31"/>
<rect x="455" y="910" width="35" height="35" fill="#8A8508"/>
<rect x="490" y="910" width="35" height="35" fill="#8A8508"/>
<rect x="525" y="910" width="35" height="35" fill="#8A8508"/>
<rect x="420" y="945" width="35" height="35" fill="#381F31"/>
<rect x="455" y="945" width="35" height="35" fill="#B8B321"/>
<rect x="490" y="945" width="35" height="35" fill="#B8B321"/>
<rect x="525" y="945" width="35" height="35" fill="#B8B321"/>
<rect x="385" y="980" width="35" height="35" fill="#381F31"/>
<rect x="420" y="980" width="35" height="35" fill="#8A8508"/>
<rect x="455" y="980" width="35" height="35" fill="#8A8508"/>
<rect x="490" y="980" width="35" height="35" fill="#E3BE17"/>
<rect x="525" y="980" width="35" height="35" fill="#B8B321"/>
<rect x="560" y="980" width="35" height="35" fill="#8A8508"/>
<rect x="595" y="980" width="35" height="35" fill="#381F31"/>
<rect x="350" y="1015" width="35" height="35" fill="#381F31"/>
<rect x="385" y="1015" width="35" height="35" fill="#8A8508"/>
<rect x="420" y="1015" width="35" height="35" fill="#8A8508"/>
<rect x="455" y="1015" width="35" height="35" fill="#B8B321"/>
<rect x="490" y="1015" width="35" height="35" fill="#E3BE17"/>
<rect x="525" y="1015" width="35" height="35" fill="#B8B321"/>
<rect x="560" y="1015" width="35" height="35" fill="#E3BE17"/>
<rect x="595" y="1015" width="35" height="35" fill="#B8B321"/>
<rect x="630" y="1015" width="35" height="35" fill="#381F31"/>
<rect x="315" y="1050" width="35" height="35" fill="#381F31"/>
<rect x="350" y="1050" width="35" height="35" fill="#8A8508"/>
<rect x="385" y="1050" width="35" height="35" fill="#8A8508"/>
<rect x="420" y="1050" width="35" height="35" fill="#E3BE17"/>
<rect x="455" y="1050" width="35" height="35" fill="#B8B321"/>
<rect x="490" y="1050" width="35" height="35" fill="#E3BE17"/>
<rect x="525" y="1050" width="35" height="35" fill="#B8B321"/>
<rect x="560" y="1050" width="35" height="35" fill="#E3BE17"/>
<rect x="595" y="1050" width="35" height="35" fill="#B8B321"/>
<rect x="630" y="1050" width="35" height="35" fill="#E3BE17"/>
<rect x="665" y="1050" width="35" height="35" fill="#381F31"/>
<rect x="315" y="1085" width="35" height="35" fill="#381F31"/>
<rect x="350" y="1085" width="35" height="35" fill="#8A8508"/>
<rect x="385" y="1085" width="35" height="35" fill="#8A8508"/>
<rect x="420" y="1085" width="35" height="35" fill="#E3BE17"/>
<rect x="455" y="1085" width="35" height="35" fill="#B8B321"/>
<rect x="490" y="1085" width="35" height="35" fill="#E3BE17"/>
<rect x="525" y="1085" width="35" height="35" fill="#B8B321"/>
<rect x="560" y="1085" width="35" height="35" fill="#E3BE17"/>
<rect x="595" y="1085" width="35" height="35" fill="#B8B321"/>
<rect x="630" y="1085" width="35" height="35" fill="#E3BE17"/>
<rect x="665" y="1085" width="35" height="35" fill="#381F31"/>
</svg>
