<svg width="1120" height="1120" viewBox="0 0 1120 1120" fill="none" xmlns="http://www.w3.org/2000/svg">
<rect x="210" y="700" width="35" height="35" fill="#381F31"/>
<rect x="245" y="700" width="35" height="35" fill="#381F31"/>
<rect x="280" y="700" width="35" height="35" fill="#381F31"/>
<rect x="315" y="700" width="35" height="35" fill="#381F31"/>
<rect x="350" y="700" width="35" height="35" fill="#381F31"/>
<rect x="175" y="735" width="35" height="35" fill="#381F31"/>
<rect x="210" y="735" width="35" height="35" fill="#FFBF36"/>
<rect x="245" y="735" width="35" height="35" fill="#FFBF36"/>
<rect x="280" y="735" width="35" height="35" fill="#FFBF36"/>
<rect x="315" y="735" width="35" height="35" fill="#FFBF36"/>
<rect x="350" y="735" width="35" height="35" fill="#381F31"/>
<rect x="140" y="770" width="35" height="35" fill="#381F31"/>
<rect x="175" y="770" width="35" height="35" fill="#FFBF36"/>
<rect x="210" y="770" width="35" height="35" fill="#FFBF36"/>
<rect x="245" y="770" width="35" height="35" fill="#FFBF36"/>
<rect x="280" y="770" width="35" height="35" fill="#FFD88A"/>
<rect x="315" y="770" width="35" height="35" fill="#FFD88A"/>
<rect x="350" y="770" width="35" height="35" fill="#FFBF36"/>
<rect x="385" y="770" width="35" height="35" fill="#381F31"/>
<rect x="105" y="805" width="35" height="35" fill="#381F31"/>
<rect x="140" y="805" width="35" height="35" fill="#FFBF36"/>
<rect x="175" y="805" width="35" height="35" fill="black"/>
<rect x="210" y="805" width="35" height="35" fill="#FFBF36"/>
<rect x="245" y="805" width="35" height="35" fill="#FFBF36"/>
<rect x="280" y="805" width="35" height="35" fill="black"/>
<rect x="315" y="805" width="35" height="35" fill="#FFD88A"/>
<rect x="350" y="805" width="35" height="35" fill="#FFD88A"/>
<rect x="385" y="805" width="35" height="35" fill="#FFBF36"/>
<rect x="420" y="805" width="35" height="35" fill="#381F31"/>
<rect x="105" y="840" width="35" height="35" fill="#381F31"/>
<rect x="140" y="840" width="35" height="35" fill="#C44D29"/>
<rect x="175" y="840" width="35" height="35" fill="#C44D29"/>
<rect x="210" y="840" width="35" height="35" fill="#C44D29"/>
<rect x="245" y="840" width="35" height="35" fill="#D9892E"/>
<rect x="280" y="840" width="35" height="35" fill="#FFBF36"/>
<rect x="315" y="840" width="35" height="35" fill="#FFBF36"/>
<rect x="350" y="840" width="35" height="35" fill="#FFBF36"/>
<rect x="385" y="840" width="35" height="35" fill="#FFBF36"/>
<rect x="420" y="840" width="35" height="35" fill="#381F31"/>
<rect x="70" y="875" width="35" height="35" fill="#381F31"/>
<rect x="105" y="875" width="35" height="35" fill="#C44D29"/>
<rect x="140" y="875" width="35" height="35" fill="#C44D29"/>
<rect x="175" y="875" width="35" height="35" fill="#C44D29"/>
<rect x="210" y="875" width="35" height="35" fill="#C44D29"/>
<rect x="245" y="875" width="35" height="35" fill="#C44D29"/>
<rect x="280" y="875" width="35" height="35" fill="#C44D29"/>
<rect x="315" y="875" width="35" height="35" fill="#D9892E"/>
<rect x="350" y="875" width="35" height="35" fill="#FFBF36"/>
<rect x="385" y="875" width="35" height="35" fill="#FFBF36"/>
<rect x="420" y="875" width="35" height="35" fill="#D69718"/>
<rect x="105" y="910" width="35" height="35" fill="#381F31"/>
<rect x="140" y="910" width="35" height="35" fill="#381F31"/>
<rect x="175" y="910" width="35" height="35" fill="#FFBF36"/>
<rect x="210" y="910" width="35" height="35" fill="#FFBF36"/>
<rect x="245" y="910" width="35" height="35" fill="#FFBF36"/>
<rect x="280" y="910" width="35" height="35" fill="#FFBF36"/>
<rect x="315" y="910" width="35" height="35" fill="#FFBF36"/>
<rect x="350" y="910" width="35" height="35" fill="#FFBF36"/>
<rect x="385" y="910" width="35" height="35" fill="#D69718"/>
<rect x="420" y="910" width="35" height="35" fill="#D69718"/>
<rect x="735" y="910" width="35" height="35" fill="#D69718"/>
<rect x="770" y="910" width="35" height="35" fill="#381F31"/>
<rect x="140" y="945" width="35" height="35" fill="#381F31"/>
<rect x="175" y="945" width="35" height="35" fill="#381F31"/>
<rect x="210" y="945" width="35" height="35" fill="#FFBF36"/>
<rect x="245" y="945" width="35" height="35" fill="#FFBF36"/>
<rect x="280" y="945" width="35" height="35" fill="#FFBF36"/>
<rect x="315" y="945" width="35" height="35" fill="#FFBF36"/>
<rect x="350" y="945" width="35" height="35" fill="#D69718"/>
<rect x="385" y="945" width="35" height="35" fill="#D69718"/>
<rect x="420" y="945" width="35" height="35" fill="#D69718"/>
<rect x="700" y="945" width="35" height="35" fill="#D69718"/>
<rect x="735" y="945" width="35" height="35" fill="#D69718"/>
<rect x="770" y="945" width="35" height="35" fill="#FFD88A"/>
<rect x="805" y="945" width="35" height="35" fill="#381F31"/>
<rect x="175" y="980" width="35" height="35" fill="#381F31"/>
<rect x="210" y="980" width="35" height="35" fill="#FFBF36"/>
<rect x="245" y="980" width="35" height="35" fill="#FFBF36"/>
<rect x="280" y="980" width="35" height="35" fill="#FFBF36"/>
<rect x="315" y="980" width="35" height="35" fill="#FFD88A"/>
<rect x="350" y="980" width="35" height="35" fill="#D69718"/>
<rect x="385" y="980" width="35" height="35" fill="#D69718"/>
<rect x="420" y="980" width="35" height="35" fill="#D69718"/>
<rect x="595" y="980" width="35" height="35" fill="#D69718"/>
<rect x="630" y="980" width="35" height="35" fill="#D69718"/>
<rect x="665" y="980" width="35" height="35" fill="#D69718"/>
<rect x="700" y="980" width="35" height="35" fill="#D69718"/>
<rect x="735" y="980" width="35" height="35" fill="#FFD88A"/>
<rect x="770" y="980" width="35" height="35" fill="#FFD88A"/>
<rect x="805" y="980" width="35" height="35" fill="#FFD88A"/>
<rect x="840" y="980" width="35" height="35" fill="#381F31"/>
<rect x="140" y="1015" width="35" height="35" fill="#381F31"/>
<rect x="175" y="1015" width="35" height="35" fill="#FFBF36"/>
<rect x="210" y="1015" width="35" height="35" fill="#FFBF36"/>
<rect x="245" y="1015" width="35" height="35" fill="#FFBF36"/>
<rect x="280" y="1015" width="35" height="35" fill="#FFBF36"/>
<rect x="315" y="1015" width="35" height="35" fill="#FFD88A"/>
<rect x="350" y="1015" width="35" height="35" fill="#FFD88A"/>
<rect x="385" y="1015" width="35" height="35" fill="#D69718"/>
<rect x="630" y="1015" width="35" height="35" fill="#D69718"/>
<rect x="665" y="1015" width="35" height="35" fill="#D69718"/>
<rect x="700" y="1015" width="35" height="35" fill="#FFD88A"/>
<rect x="735" y="1015" width="35" height="35" fill="#FFD88A"/>
<rect x="770" y="1015" width="35" height="35" fill="#FFD88A"/>
<rect x="805" y="1015" width="35" height="35" fill="#FFD88A"/>
<rect x="840" y="1015" width="35" height="35" fill="#381F31"/>
<rect x="140" y="1050" width="35" height="35" fill="#381F31"/>
<rect x="175" y="1050" width="35" height="35" fill="#FFBF36"/>
<rect x="210" y="1050" width="35" height="35" fill="#FFBF36"/>
<rect x="245" y="1050" width="35" height="35" fill="#FFBF36"/>
<rect x="280" y="1050" width="35" height="35" fill="#FFBF36"/>
<rect x="315" y="1050" width="35" height="35" fill="#FFBF36"/>
<rect x="350" y="1050" width="35" height="35" fill="#FFD88A"/>
<rect x="385" y="1050" width="35" height="35" fill="#FFBF36"/>
<rect x="665" y="1050" width="35" height="35" fill="#FFD88A"/>
<rect x="700" y="1050" width="35" height="35" fill="#FFD88A"/>
<rect x="735" y="1050" width="35" height="35" fill="#FFD88A"/>
<rect x="770" y="1050" width="35" height="35" fill="#FFD88A"/>
<rect x="805" y="1050" width="35" height="35" fill="#FFD88A"/>
<rect x="840" y="1050" width="35" height="35" fill="#381F31"/>
<rect x="175" y="1085" width="35" height="35" fill="#381F31"/>
<rect x="210" y="1085" width="35" height="35" fill="#FFBF36"/>
<rect x="245" y="1085" width="35" height="35" fill="#FFBF36"/>
<rect x="280" y="1085" width="35" height="35" fill="#FFBF36"/>
<rect x="315" y="1085" width="35" height="35" fill="#FFBF36"/>
<rect x="350" y="1085" width="35" height="35" fill="#FFBF36"/>
<rect x="385" y="1085" width="35" height="35" fill="#FFBF36"/>
<rect x="420" y="1085" width="35" height="35" fill="#FFBF36"/>
<rect x="455" y="1085" width="35" height="35" fill="#FFBF36"/>
<rect x="490" y="1085" width="35" height="35" fill="#FFD88A"/>
<rect x="525" y="1085" width="35" height="35" fill="#FFD88A"/>
<rect x="560" y="1085" width="35" height="35" fill="#FFD88A"/>
<rect x="595" y="1085" width="35" height="35" fill="#FFD88A"/>
<rect x="630" y="1085" width="35" height="35" fill="#FFD88A"/>
<rect x="665" y="1085" width="35" height="35" fill="#FFD88A"/>
<rect x="700" y="1085" width="35" height="35" fill="#FFD88A"/>
<rect x="735" y="1085" width="35" height="35" fill="#FFD88A"/>
<rect x="770" y="1085" width="35" height="35" fill="#FFD88A"/>
<rect x="805" y="1085" width="35" height="35" fill="#381F31"/>
</svg>
