<svg width="1120" height="1120" viewBox="0 0 1120 1120" fill="none" xmlns="http://www.w3.org/2000/svg">
<rect x="490" y="210" width="35" height="35" fill="#FFBF36"/>
<rect x="525" y="210" width="35" height="35" fill="#FFF275"/>
<rect x="560" y="210" width="35" height="35" fill="#FFF275"/>
<rect x="595" y="210" width="35" height="35" fill="#FFF275"/>
<rect x="630" y="210" width="35" height="35" fill="#FFF275"/>
<rect x="665" y="210" width="35" height="35" fill="#FFF275"/>
<rect x="700" y="210" width="35" height="35" fill="#FFBF36"/>
<rect x="455" y="245" width="35" height="35" fill="#FFBF36"/>
<rect x="735" y="245" width="35" height="35" fill="#FFBF36"/>
<rect x="490" y="280" width="35" height="35" fill="#FFBF36"/>
<rect x="525" y="280" width="35" height="35" fill="#FFBF36"/>
<rect x="560" y="280" width="35" height="35" fill="#FFBF36"/>
<rect x="595" y="280" width="35" height="35" fill="#FFF275"/>
<rect x="630" y="280" width="35" height="35" fill="#FFF275"/>
<rect x="665" y="280" width="35" height="35" fill="#FFBF36"/>
<rect x="700" y="280" width="35" height="35" fill="#FFBF36"/>
</svg>
